<?xml version="1.0" encoding="UTF-8" standalone="no"?>
<!-- Created with Inkscape (http://www.inkscape.org/) -->

<svg
   width="15mm"
   height="15mm"
   viewBox="0 0 210 297"
   version="1.1"
   id="svg5"
   inkscape:version="1.1 (c68e22c387, 2021-05-23)"
   sodipodi:docname="logo-white.svg"
   xmlns:inkscape="http://www.inkscape.org/namespaces/inkscape"
   xmlns:sodipodi="http://sodipodi.sourceforge.net/DTD/sodipodi-0.dtd"
   xmlns="http://www.w3.org/2000/svg"
   xmlns:svg="http://www.w3.org/2000/svg">
  <sodipodi:namedview
     id="namedview7"
     pagecolor="#505050"
     bordercolor="#eeeeee"
     borderopacity="1"
     inkscape:pageshadow="0"
     inkscape:pageopacity="0"
     inkscape:pagecheckerboard="0"
     inkscape:document-units="mm"
     showgrid="false"
     inkscape:zoom="5.8725028"
     inkscape:cx="16.243312"
     inkscape:cy="28.122044"
     inkscape:window-width="1920"
     inkscape:window-height="1009"
     inkscape:window-x="-8"
     inkscape:window-y="-8"
     inkscape:window-maximized="1"
     inkscape:current-layer="text81720" />
  <defs
     id="defs2">
    <rect
       x="-1.3622812"
       y="15.666233"
       width="46.31756"
       height="49.042122"
       id="rect97218" />
    <rect
       x="0"
       y="0.68114059"
       width="226.81982"
       height="73.563183"
       id="rect81722" />
    <rect
       x="3.4057029"
       y="3.4057029"
       width="352.83082"
       height="102.17109"
       id="rect37924" />
  </defs>
  <g
     inkscape:label="Ebene 1"
     inkscape:groupmode="layer"
     id="layer1">
    <g
       aria-label="ohano"
       transform="matrix(5.6642312,0,0,5.6642312,-60.963041,-50.865251)"
       id="text81720"
       style="font-size:64px;line-height:1.26;font-family:Comfortaa;-inkscape-font-specification:Comfortaa;white-space:pre;shape-inside:url(#rect81722)">
      <path
         d="m 29.242878,60.512835 q -7.291764,0 -13.034027,-3.281294 Q 10.466587,53.950248 7.1852935,48.207984 3.904,42.465721 3.904,35.173957 q 0,-7.382909 3.2812935,-13.125173 3.2812935,-5.742263 9.0235575,-9.023557 5.742263,-3.2812934 13.034027,-3.2812934 7.291762,0 12.942879,3.2812934 5.742264,3.281294 9.023557,9.023557 3.281294,5.742264 3.37244,13.125173 0,7.291764 -3.37244,13.034027 -3.281293,5.742264 -9.023557,9.023557 -5.651117,3.281294 -12.942879,3.281294 z m 0,-6.380293 q 5.286528,0 9.479291,-2.460969 4.192765,-2.46097 6.562587,-6.744882 2.369824,-4.283911 2.369824,-9.752734 0,-5.468821 -2.369824,-9.752732 -2.369822,-4.375058 -6.562587,-6.836029 -4.192763,-2.46097 -9.479291,-2.46097 -5.286529,0 -9.479293,2.46097 -4.192763,2.460971 -6.653734,6.836029 -2.369823,4.283911 -2.369823,9.752732 0,5.468823 2.369823,9.752734 2.460971,4.283912 6.653734,6.744882 4.192764,2.460969 9.479293,2.460969 z"
         id="path111810"
         style="stroke-width:1.42417"
         fill="#ffffff" />
    </g>
    <g
       aria-label="*"
       transform="matrix(11.497603,0,0,11.497603,26.278763,-172.81595)"
       id="text97216"
       style="font-size:42.6667px;line-height:1.25;font-family:Comfortaa;-inkscape-font-specification:'Comfortaa, Normal';white-space:pre;shape-inside:url(#rect97218)">
      <path
         d="m 3.8013424,33.634436 q -0.7253339,0 -1.1946676,-0.512001 -0.426667,-0.512 -0.426667,-1.152001 0,-0.341333 0.1280001,-0.64 Q 2.436008,30.9891 2.7773416,30.775767 L 5.6786771,28.343765 2.2226745,28.045098 Q 1.454674,27.959765 0.98534029,27.490431 0.55867331,27.021097 0.55867331,26.381097 0.60134,25.613096 1.0706737,25.186429 q 0.5120004,-0.469333 1.1520008,-0.469333 0.2560002,0 0.5120004,0.128 0.2986669,0.08533 0.5546671,0.256 l 2.8160021,1.749335 -0.7253339,-3.285336 q -0.042667,-0.128 -0.085333,-0.256 -0.042667,-0.128001 -0.042667,-0.298667 0,-0.682668 0.4693337,-1.152001 0.5120004,-0.512001 1.1946676,-0.512001 0.6826672,0 1.1520008,0.512001 0.5120004,0.469333 0.5120004,1.152001 0,0.170666 -0.042667,0.298667 0,0.128 -0.042667,0.256 l -0.7680006,3.328002 3.1146689,-1.920001 q 0.384001,-0.256 0.810668,-0.256 0.597334,0 1.109334,0.469333 0.554667,0.469334 0.554667,1.194668 0,0.725334 -0.469334,1.194667 -0.469333,0.426667 -1.152,0.469334 l -3.4560035,0.298667 2.6880025,2.218668 q 0.768001,0.597334 0.768001,1.408001 0,0.682668 -0.512001,1.194668 -0.469333,0.469334 -1.3226679,0.469334 Q 9.3480132,33.591769 9.0066796,33.293102 8.665346,32.994435 8.4520125,32.525101 L 6.9586781,29.197099 5.4226769,32.482435 q -0.2133335,0.597334 -0.6400004,0.896 -0.3840003,0.256001 -0.9813341,0.256001 z"
         id="path111839"
         fill="#ffffff" />
    </g>
  </g>
</svg>
